<?xml version="1.0" encoding="UTF-8"?>
<!DOCTYPE svg PUBLIC "-//W3C//DTD SVG 1.1//EN" "http://www.w3.org/Graphics/SVG/1.1/DTD/svg11.dtd">
<svg version="1.1" xmlns="http://www.w3.org/2000/svg" xmlns:xlink="http://www.w3.org/1999/xlink" x="0" y="0" width="512" height="512" viewBox="0, 0, 512, 512">
  <g id="レイヤー_2">
    <path d="M0,0 L512,0 L512,512 L0,512 L0,0 z" fill="#FFFFFF"/>
  </g>
  <g id="レイヤー_1">
    <path d="M256,0 C114.801,0 0,114.883 0,256 C0,323.282 25.918,386.883 73.039,435.039 C121.519,484.718 186.481,512 256,512 C325.438,512 390.398,484.718 438.879,435.039 C486,386.883 512,323.282 512,256 C512,114.883 397.121,0 256,0 z M103.875,410.461 C146.269,383.747 201.043,354.481 204.879,353.602 L207.281,353.602 L207.281,307.602 C201.757,304.719 197.999,297.602 195.437,290.563 C192.964,283.911 191.784,277.426 191.417,274.751 C191.417,274.692 191.406,274.583 191.41,274.551 C191.402,274.555 191.394,274.551 191.386,274.555 C191.379,274.517 191.367,274.438 191.359,274.399 C173.84,280.243 171.281,247.442 170.481,239.121 C169.68,231.602 173.039,226.32 175.359,224.243 C174.801,223.04 174.078,221.282 173.437,219.2 C173.437,219.122 173.437,219.122 173.437,219.122 C166.718,188.72 170.64,179.841 184.078,155.603 C197.68,131.041 231.68,107.361 251.519,107.681 C253.039,107.681 254.558,107.681 256,107.841 C279.84,109.443 292.718,121.2 302.879,139.36 C309.039,139.36 319.757,147.52 327.84,155.602 C331.359,159.04 334.398,162.563 336.32,165.36 C341.918,173.36 343.039,186.243 342.16,198.083 C341.519,206.161 340.078,213.841 338.481,219.121 L338.481,219.199 C337.84,221.281 337.199,223.039 336.559,224.242 C338.961,226.32 342.239,231.601 341.52,239.12 C340.642,247.441 338.079,280.242 320.642,274.398 C320.642,274.562 320.642,274.718 320.56,274.883 C319.759,280.398 316.881,300.718 304.72,307.601 L304.72,353.3 L304.72,353.441 L304.72,353.441 L304.72,353.601 L307.041,353.601 C310.615,354.417 358.392,379.839 399.111,404.898 C402.138,406.773 405.13,408.644 408.056,410.508 C367.336,450.809 313.59,472.883 256,472.883 C203.621,472.883 154.328,454.516 115.117,420.793 C111.282,417.481 107.508,414.066 103.875,410.461 z" fill="#7B8D94"/>
  </g>
</svg>
