<svg xmlns="http://www.w3.org/2000/svg">
  <symbol id="first" viewBox="0 0 32 32">
	  <path d="M31.734,2.429c-1.438-1.196-3.664-1.953-6.543,0.354c-0.006-0.35-0.01-0.695-0.022-1.059c-1.79,0-16.547,0-18.337,0
		         C6.818,2.088,6.814,2.434,6.81,2.782C3.93,0.477,1.705,1.231,0.268,2.43L0,2.653l0.017,0.346c0.015,0.333,0.432,8.199,4.749,11.769
		         c1.508,1.247,3.305,1.824,5.343,1.701c-0.139,0.438-0.414,1.042-0.731,1.574l1.197,0.718c0.227-0.379,0.602-1.066,0.828-1.769
		         c1.59,1.29,2.982,1.677,2.982,2.631c0,2.148-5.313,3.546-5.504,4.891H8.143v0.567H7.355v5.632h17.116v-5.632h-0.691v-0.567H23.12
		         c-0.188-1.345-5.505-2.741-5.505-4.891c0-0.955,1.393-1.342,2.984-2.631c0.227,0.701,0.601,1.389,0.825,1.768l1.199-0.719
		         c-0.317-0.53-0.595-1.135-0.731-1.572c2.039,0.122,3.834-0.454,5.342-1.701c4.317-3.57,4.733-11.437,4.75-11.77L32,2.65
		         L31.734,2.429z M5.659,13.694C2.301,10.919,1.57,4.828,1.438,3.291c1.586-1.121,3.353-0.673,5.378,1.364
		         C6.824,4.919,6.84,5.169,6.854,5.422c-0.49,0.47-1.151,1.085-1.756,1.633l0.938,1.036c0.36-0.326,0.676-0.613,0.952-0.868
		         c0.409,3.825,1.438,6.242,2.604,7.855C8.095,15.075,6.773,14.615,5.659,13.694z M21.936,29.541H10.219v-2.863h11.716V29.541z
		         M26.342,13.694c-1.113,0.921-2.436,1.38-3.932,1.384c1.165-1.614,2.195-4.03,2.604-7.854c0.277,0.254,0.592,0.541,0.953,0.867
		         l0.938-1.035c-0.605-0.548-1.268-1.162-1.756-1.635c0.014-0.252,0.027-0.501,0.035-0.766c2.025-2.037,3.793-2.485,5.379-1.365
		         C30.43,4.827,29.701,10.918,26.342,13.694z"/>
  </symbol>
  <symbol id="second" viewBox="0 0 500 500">
	  <path d="M347.102,173.479c0,54.353-44.061,98.414-98.408,98.414c-54.348,0-98.411-44.061-98.411-98.414
		         c0-54.35,44.058-98.411,98.407-98.411C303.038,75.069,347.102,119.129,347.102,173.479z M446.862,463.073
		         c-2.111,2.179-5.449,2.633-8.063,1.106L367,422.274c-0.741,8.138-1.812,20.062-2.919,31.974
		         c-0.979,10.599-1.975,21.192-2.745,29.144c-0.396,3.994-0.729,7.327-0.984,9.657c-0.457,4.188-1.023,9.402-6.892,9.538
		         c-0.027,0-0.061,0-0.088,0c-1.739,0.024-3.414-0.645-4.667-1.854c-1.034-1.002-1.722-2.45-1.954-3.912
		         c-2.353-8.11-39.142-92.681-69.193-160.997l-5.865,4.409c-2.091,1.56-4.373,2.9-6.764,3.945
		         c-10.642,4.651-23.201,3.427-32.754-3.185l-10.411-7.206c-28.932,67.803-63.311,149.265-65.524,157.239
		         c-0.214,1.454-0.882,2.909-1.918,3.922c-1.237,1.226-2.914,1.915-4.643,1.915c-0.03,0-0.063,0-0.089-0.005
		         c-5.875-0.083-6.49-5.281-6.994-9.46c-0.282-2.325-0.646-5.659-1.081-9.654c-0.864-7.935-1.973-18.522-3.061-29.104
		         c-1.232-11.906-2.444-23.808-3.268-31.94L63.85,459.364c-2.61,1.56-5.951,1.14-8.08-1.018c-2.139-2.162-2.533-5.5-0.951-8.092
		         l87.54-143.614c-12.159-3.541-21.455-13.637-23.771-26.369l-8.394-46.204l-28.216-37.545c-8.758-11.645-9.062-27.524-0.764-39.511
		         l26.735-38.616l6.588-46.499c1.639-11.503,9.264-21.549,19.915-26.194c2.395-1.053,4.914-1.817,7.487-2.288l46.21-8.399
		         l37.543-28.21c2.096-1.577,4.37-2.903,6.758-3.945c10.807-4.731,23.051-3.541,32.753,3.176l38.604,26.728l46.501,6.599
		         c14.436,2.046,25.876,13.061,28.486,27.401l8.395,46.206l28.216,37.538c8.755,11.647,9.054,27.527,0.766,39.518l-26.736,38.614
		         l-6.588,46.495c-1.638,11.511-9.259,21.547-19.914,26.203c-2.39,1.051-4.915,1.812-7.48,2.282l-2.003,0.361l94.284,150.985
		         C449.341,457.544,448.982,460.891,446.862,463.073z M361.977,173.479c0-62.564-50.726-113.287-113.288-113.287
		         c-62.567,0-113.29,50.722-113.29,113.287c0,62.567,50.723,113.292,113.29,113.292C311.251,286.771,361.977,236.047,361.977,173.479
		         z"/>
  </symbol>
  <symbol id="third" viewBox="0 0 32 32">
		<g>
			<path d="M16,20c-1.41,0-2.742-0.289-4-0.736V32l4-4l4,4V19.264C18.742,19.711,17.41,20,16,20z"/>
			<path d="M16,0c-4.418,0-8,3.582-8,8s3.582,8,8,8s8-3.582,8-8S20.418,0,16,0z M16,12c-2.211,0-4-1.791-4-4
				       s1.789-4,4-4s4,1.791,4,4S18.211,12,16,12z"/>
		</g>
  </symbol>
</svg>
