<svg xmlns="http://www.w3.org/2000/svg">
  <symbol id="first" viewBox="0 0 385.5 385.5">
	  <path d="M286.783,183.347c22.268-15.557,40.408-35.458,51.077-56.04c12.368-23.859,13.582-46.727,3.415-64.39
		         c-8.314-14.445-21.493-23.606-37.109-25.797c-7.682-1.077-15.715-0.473-23.682,1.639V12.022c0-6.64-5.384-12.022-12.022-12.022
		         h-151.5c-6.64,0-12.022,5.383-12.022,12.022v26.735c-7.965-2.111-15.998-2.715-23.681-1.637
		         c-15.617,2.19-28.796,11.352-37.111,25.797c-10.167,17.664-8.954,40.531,3.415,64.39c10.669,20.581,28.809,40.483,51.077,56.039
		         c4.743,3.314,5.281,6.87,4.896,9.271c-0.436,2.72-2.175,4.917-4.43,5.595c-3.389,1.02-9.865-0.984-17.848-9.675
		         c-5.754-6.264-15.498-6.677-21.763-0.922c-6.264,5.755-6.677,15.5-0.922,21.763c14.805,16.116,28.953,19.832,38.85,19.832
		         c4.518,0,8.15-0.773,10.554-1.498c5.138-1.545,9.793-4.229,13.721-7.742c11.215,15.416,27.318,27.055,46.015,32.619v44.234h-37.388
		         c-17.643,0-31.998,14.354-31.998,31.998v41.603c0,8.284,6.716,15,15,15h158.771c8.284,0,15-6.716,15-15V328.82
		         c0-17.644-14.354-31.998-31.997-31.998h-37.39v-44.234c18.695-5.564,34.799-17.203,46.015-32.619
		         c3.929,3.514,8.583,6.197,13.722,7.742c2.404,0.723,6.035,1.498,10.554,1.498c9.897-0.001,24.046-3.718,38.85-19.832
		         c5.755-6.266,5.342-16.008-0.922-21.763c-6.264-5.755-16.008-5.342-21.763,0.922c-7.984,8.69-14.456,10.692-17.849,9.675
		         c-2.256-0.678-3.995-2.875-4.431-5.595C281.502,190.216,282.04,186.66,286.783,183.347z M257.096,328.82v26.603H128.325V328.82
		         c0-1.102,0.896-1.998,1.998-1.998h124.776C256.2,326.822,257.096,327.719,257.096,328.82z M74.911,113.129
		         c-4.27-8.235-10.473-23.711-4.065-34.845c3.623-6.293,8.428-9.779,14.691-10.657c5.849-0.818,12.695,0.661,19.402,3.945v77.755
		         C92.024,138.359,81.393,125.631,74.911,113.129z M280.483,149.328V71.57c6.706-3.286,13.553-4.766,19.401-3.943
		         c6.264,0.878,11.068,4.364,14.689,10.657c6.409,11.134,0.205,26.61-4.064,34.845C304.029,125.631,293.398,138.359,280.483,149.328z
		         "/>
  </symbol>
  <symbol id="second" viewBox="0 0 500 500">
	  <path d="M347.102,173.479c0,54.353-44.061,98.414-98.408,98.414c-54.348,0-98.411-44.061-98.411-98.414
		         c0-54.35,44.058-98.411,98.407-98.411C303.038,75.069,347.102,119.129,347.102,173.479z M446.862,463.073
		         c-2.111,2.179-5.449,2.633-8.063,1.106L367,422.274c-0.741,8.138-1.812,20.062-2.919,31.974
		         c-0.979,10.599-1.975,21.192-2.745,29.144c-0.396,3.994-0.729,7.327-0.984,9.657c-0.457,4.188-1.023,9.402-6.892,9.538
		         c-0.027,0-0.061,0-0.088,0c-1.739,0.024-3.414-0.645-4.667-1.854c-1.034-1.002-1.722-2.45-1.954-3.912
		         c-2.353-8.11-39.142-92.681-69.193-160.997l-5.865,4.409c-2.091,1.56-4.373,2.9-6.764,3.945
		         c-10.642,4.651-23.201,3.427-32.754-3.185l-10.411-7.206c-28.932,67.803-63.311,149.265-65.524,157.239
		         c-0.214,1.454-0.882,2.909-1.918,3.922c-1.237,1.226-2.914,1.915-4.643,1.915c-0.03,0-0.063,0-0.089-0.005
		         c-5.875-0.083-6.49-5.281-6.994-9.46c-0.282-2.325-0.646-5.659-1.081-9.654c-0.864-7.935-1.973-18.522-3.061-29.104
		         c-1.232-11.906-2.444-23.808-3.268-31.94L63.85,459.364c-2.61,1.56-5.951,1.14-8.08-1.018c-2.139-2.162-2.533-5.5-0.951-8.092
		         l87.54-143.614c-12.159-3.541-21.455-13.637-23.771-26.369l-8.394-46.204l-28.216-37.545c-8.758-11.645-9.062-27.524-0.764-39.511
		         l26.735-38.616l6.588-46.499c1.639-11.503,9.264-21.549,19.915-26.194c2.395-1.053,4.914-1.817,7.487-2.288l46.21-8.399
		         l37.543-28.21c2.096-1.577,4.37-2.903,6.758-3.945c10.807-4.731,23.051-3.541,32.753,3.176l38.604,26.728l46.501,6.599
		         c14.436,2.046,25.876,13.061,28.486,27.401l8.395,46.206l28.216,37.538c8.755,11.647,9.054,27.527,0.766,39.518l-26.736,38.614
		         l-6.588,46.495c-1.638,11.511-9.259,21.547-19.914,26.203c-2.39,1.051-4.915,1.812-7.48,2.282l-2.003,0.361l94.284,150.985
		         C449.341,457.544,448.982,460.891,446.862,463.073z M361.977,173.479c0-62.564-50.726-113.287-113.288-113.287
		         c-62.567,0-113.29,50.722-113.29,113.287c0,62.567,50.723,113.292,113.29,113.292C311.251,286.771,361.977,236.047,361.977,173.479
		         z"/>
  </symbol>
  <symbol id="third" viewBox="0 0 32 32">
		<g>
			<path d="M16,20c-1.41,0-2.742-0.289-4-0.736V32l4-4l4,4V19.264C18.742,19.711,17.41,20,16,20z"/>
			<path d="M16,0c-4.418,0-8,3.582-8,8s3.582,8,8,8s8-3.582,8-8S20.418,0,16,0z M16,12c-2.211,0-4-1.791-4-4
				       s1.789-4,4-4s4,1.791,4,4S18.211,12,16,12z"/>
		</g>
  </symbol>
</svg>
