<svg xmlns="http://www.w3.org/2000/svg">
  <symbol id="first" viewBox="0 0 32 32">
	  <path d="M24.651,0l0.034,0.725c0.021,0.416-0.084,0.734-0.317,0.975c-0.314,0.322-0.824,0.484-1.252,0.557
		         c0.016-0.371,0.031-0.745,0.043-1.132c-0.619,0-3.891,0-7.155,0c-0.003,0-0.005,0-0.008,0c-3.265,0-6.535,0-7.154,0
		         C8.854,1.512,8.87,1.886,8.886,2.257C8.457,2.184,7.948,2.021,7.633,1.699C7.398,1.459,7.293,1.14,7.314,0.724L7.349,0H3.558
		         l0.013,0.704c0.21,12.111,5.337,15.043,7.684,15.75l-0.385,0.547L12,17.798l0.386-0.551c0.772,1.438,1.445,2.356,1.732,3.09h-0.524
		         v1.097h0.64c-0.259,1.694-3.684,3.656-3.684,3.656v1.034H9.71V32h6.285h0.008h6.285v-5.876H21.45V25.09
		         c0,0-3.426-1.962-3.685-3.656h0.64v-1.097h-0.523c0.287-0.733,0.96-1.649,1.732-3.09l0.385,0.551l1.132-0.797l-0.386-0.547
		         c2.348-0.707,7.475-3.639,7.685-15.75L28.442,0H24.651z M4.971,1.383h1.011C6.077,1.88,6.302,2.317,6.648,2.67
		         C7.34,3.375,8.333,3.588,8.965,3.654c0.369,5.33,1.352,8.889,2.373,11.373C9.329,14.291,5.323,11.553,4.971,1.383z M20.661,15.027
		         c1.021-2.484,2.004-6.043,2.373-11.373c0.633-0.066,1.625-0.279,2.316-0.984c0.348-0.353,0.572-0.79,0.667-1.287h1.011
		         C26.678,11.553,22.671,14.291,20.661,15.027z"/>
  </symbol>
  <symbol id="second" viewBox="0 0 500 500">
	  <path d="M347.102,173.479c0,54.353-44.061,98.414-98.408,98.414c-54.348,0-98.411-44.061-98.411-98.414
		         c0-54.35,44.058-98.411,98.407-98.411C303.038,75.069,347.102,119.129,347.102,173.479z M446.862,463.073
		         c-2.111,2.179-5.449,2.633-8.063,1.106L367,422.274c-0.741,8.138-1.812,20.062-2.919,31.974
		         c-0.979,10.599-1.975,21.192-2.745,29.144c-0.396,3.994-0.729,7.327-0.984,9.657c-0.457,4.188-1.023,9.402-6.892,9.538
		         c-0.027,0-0.061,0-0.088,0c-1.739,0.024-3.414-0.645-4.667-1.854c-1.034-1.002-1.722-2.45-1.954-3.912
		         c-2.353-8.11-39.142-92.681-69.193-160.997l-5.865,4.409c-2.091,1.56-4.373,2.9-6.764,3.945
		         c-10.642,4.651-23.201,3.427-32.754-3.185l-10.411-7.206c-28.932,67.803-63.311,149.265-65.524,157.239
		         c-0.214,1.454-0.882,2.909-1.918,3.922c-1.237,1.226-2.914,1.915-4.643,1.915c-0.03,0-0.063,0-0.089-0.005
		         c-5.875-0.083-6.49-5.281-6.994-9.46c-0.282-2.325-0.646-5.659-1.081-9.654c-0.864-7.935-1.973-18.522-3.061-29.104
		         c-1.232-11.906-2.444-23.808-3.268-31.94L63.85,459.364c-2.61,1.56-5.951,1.14-8.08-1.018c-2.139-2.162-2.533-5.5-0.951-8.092
		         l87.54-143.614c-12.159-3.541-21.455-13.637-23.771-26.369l-8.394-46.204l-28.216-37.545c-8.758-11.645-9.062-27.524-0.764-39.511
		         l26.735-38.616l6.588-46.499c1.639-11.503,9.264-21.549,19.915-26.194c2.395-1.053,4.914-1.817,7.487-2.288l46.21-8.399
		         l37.543-28.21c2.096-1.577,4.37-2.903,6.758-3.945c10.807-4.731,23.051-3.541,32.753,3.176l38.604,26.728l46.501,6.599
		         c14.436,2.046,25.876,13.061,28.486,27.401l8.395,46.206l28.216,37.538c8.755,11.647,9.054,27.527,0.766,39.518l-26.736,38.614
		         l-6.588,46.495c-1.638,11.511-9.259,21.547-19.914,26.203c-2.39,1.051-4.915,1.812-7.48,2.282l-2.003,0.361l94.284,150.985
		         C449.341,457.544,448.982,460.891,446.862,463.073z M361.977,173.479c0-62.564-50.726-113.287-113.288-113.287
		         c-62.567,0-113.29,50.722-113.29,113.287c0,62.567,50.723,113.292,113.29,113.292C311.251,286.771,361.977,236.047,361.977,173.479
		         z"/>
  </symbol>
  <symbol id="third" viewBox="0 0 32 32">
		<g>
			<path d="M16,20c-1.41,0-2.742-0.289-4-0.736V32l4-4l4,4V19.264C18.742,19.711,17.41,20,16,20z"/>
			<path d="M16,0c-4.418,0-8,3.582-8,8s3.582,8,8,8s8-3.582,8-8S20.418,0,16,0z M16,12c-2.211,0-4-1.791-4-4
				       s1.789-4,4-4s4,1.791,4,4S18.211,12,16,12z"/>
		</g>
  </symbol>
</svg>
