<?xml version="1.0" standalone="no"?>
<!DOCTYPE svg PUBLIC "-//W3C//DTD SVG 20010904//EN"
 "http://www.w3.org/TR/2001/REC-SVG-20010904/DTD/svg10.dtd">
<svg version="1.0" xmlns="http://www.w3.org/2000/svg"
 width="520.000000pt" height="520.000000pt" viewBox="0 0 520.000000 520.000000"
 preserveAspectRatio="xMidYMid meet">
<metadata>
Created by potrace 1.11, written by Peter Selinger 2001-2013
</metadata>
<g transform="translate(0.000000,520.000000) scale(0.100000,-0.100000)"
fill="#000000" stroke="none">
<path d="M0 2600 l0 -2600 2600 0 2600 0 0 2600 0 2600 -2600 0 -2600 0 0
-2600z m1725 2118 c31 -68 50 -208 37 -276 -18 -103 -95 -214 -370 -534 -28
-34 -49 -65 -45 -69 5 -5 64 3 133 17 161 32 288 41 330 24 47 -19 82 -87 81
-156 0 -47 -10 -76 -56 -171 -60 -126 -170 -314 -303 -518 -100 -154 -135
-201 -267 -361 -377 -455 -568 -600 -836 -634 -99 -12 -179 -13 -179 -2 0 4
41 44 91 88 157 136 325 319 490 534 215 280 478 696 543 862 56 142 40 144
-230 35 -319 -129 -392 -148 -414 -107 -29 54 -28 291 1 326 6 8 54 44 106 80
317 221 556 471 777 812 36 56 71 102 76 102 6 0 22 -24 35 -52z m2118 -122
c76 -19 118 -44 141 -87 25 -46 16 -79 -32 -127 -39 -39 -296 -203 -412 -263
-117 -60 -266 -177 -740 -584 -272 -234 -300 -259 -300 -274 0 -14 -2 -15 82
13 40 14 116 36 168 50 197 53 609 159 705 181 333 77 638 158 660 175 22 17
84 30 160 34 135 7 370 -53 457 -117 33 -24 68 -85 68 -117 0 -86 -141 -130
-415 -130 -184 0 -459 -15 -650 -35 -305 -33 -510 -78 -750 -164 -105 -38
-150 -56 -430 -173 -156 -66 -202 -68 -299 -15 -86 48 -187 128 -232 186 l-35
46 48 7 c26 3 95 7 153 7 130 1 167 11 239 64 156 116 438 383 573 544 24 28
79 93 122 144 85 101 146 189 146 213 0 21 -34 29 -88 21 -64 -9 -194 -35
-203 -41 -4 -2 -52 -5 -106 -5 -186 0 -375 77 -295 120 10 5 176 67 368 136
192 69 372 135 399 145 52 20 171 55 215 64 41 8 221 -4 283 -18z m-542 -1476
c173 -57 351 -174 407 -268 l27 -47 6 -515 c3 -283 11 -612 18 -730 15 -256 6
-371 -35 -453 -61 -122 -112 -160 -279 -212 -262 -80 -314 -99 -422 -150 -169
-81 -303 -157 -462 -264 -189 -126 -201 -134 -201 -128 0 11 87 106 381 417
356 377 482 520 510 579 59 126 82 360 83 841 1 311 -2 379 -17 460 -45 239
-83 332 -174 424 -30 31 -51 61 -48 66 12 20 113 10 206 -20z m-1425 -452 c-3
-21 -36 -116 -73 -218 -95 -254 -271 -937 -298 -1150 -26 -210 -52 -304 -96
-346 -26 -25 -38 -29 -89 -29 -50 0 -63 4 -96 30 -121 99 -180 434 -133 765
46 319 203 850 252 850 59 0 103 -179 114 -472 3 -87 9 -158 13 -158 16 0 60
81 297 548 87 171 116 219 109 180z"/>
</g>
</svg>
